<?xml version="1.0" encoding="utf-8"?>
<!-- Generator: Adobe Illustrator 15.1.0, SVG Export Plug-In  -->
<!DOCTYPE svg PUBLIC "-//W3C//DTD SVG 1.1//EN" "http://www.w3.org/Graphics/SVG/1.1/DTD/svg11.dtd" [
	<!ENTITY ns_flows "http://ns.adobe.com/Flows/1.0/">
]>
<svg version="1.1"
	 xmlns="http://www.w3.org/2000/svg" xmlns:xlink="http://www.w3.org/1999/xlink" xmlns:a="http://ns.adobe.com/AdobeSVGViewerExtensions/3.0/"
	 x="0px" y="0px" width="85px" height="58px" viewBox="0 0 85 58" enable-background="new 0 0 85 58" xml:space="preserve">
<defs>
</defs>
<path fill="#FFFFFF" d="M73.545,4.038c5.771,0,10.446,4.678,10.446,10.448s-4.676,10.447-10.446,10.447s-10.447-4.677-10.447-10.447
	S67.775,4.038,73.545,4.038"/>
<path fill="#FFFFFF" d="M42.321,4.038c5.771,0,10.447,4.678,10.447,10.448s-4.677,10.447-10.447,10.447
	c-5.77,0-10.446-4.677-10.446-10.447S36.551,4.038,42.321,4.038"/>
<path fill="#FFFFFF" d="M11.098,4.038c5.77,0,10.446,4.678,10.446,10.448s-4.676,10.447-10.446,10.447
	c-5.771,0-10.447-4.677-10.447-10.447S5.327,4.038,11.098,4.038"/>
<path fill="#FFFFFF" d="M11.098,53.878c-5.771,0-10.447-4.678-10.447-10.447c0-5.771,4.676-10.447,10.447-10.447
	c5.77,0,10.446,4.677,10.446,10.447C21.544,49.2,16.868,53.878,11.098,53.878"/>
<path fill="#FFFFFF" d="M42.321,53.878c-5.77,0-10.446-4.678-10.446-10.447c0-5.771,4.676-10.447,10.446-10.447
	c5.771,0,10.447,4.677,10.447,10.447C52.768,49.2,48.091,53.878,42.321,53.878"/>
<path fill="#FFFFFF" d="M73.545,53.878c-5.771,0-10.447-4.678-10.447-10.447c0-5.771,4.677-10.447,10.447-10.447
	s10.446,4.677,10.446,10.447C83.992,49.2,79.316,53.878,73.545,53.878"/>
<path fill="#FFFFFF" d="M82.643,31.25H59.012v24.5c0,1.242-1.007,2.25-2.25,2.25c-1.241,0-2.25-1.008-2.25-2.25v-24.5H29.151v24.5
	c0,1.242-1.008,2.25-2.25,2.25c-1.242,0-2.25-1.008-2.25-2.25v-24.5H2.25C1.007,31.25,0,30.241,0,29c0-1.243,1.007-2.25,2.25-2.25
	h22.401V2.25c0-1.243,1.008-2.25,2.25-2.25c1.242,0,2.25,1.007,2.25,2.25v24.5h25.361V2.25c0-1.243,1.009-2.25,2.25-2.25
	c1.243,0,2.25,1.007,2.25,2.25v24.5h23.631c1.241,0,2.25,1.007,2.25,2.25C84.893,30.241,83.884,31.25,82.643,31.25"/>
</svg>