<?xml version="1.0" encoding="utf-8"?>
<!-- Generator: Adobe Illustrator 15.1.0, SVG Export Plug-In  -->
<!DOCTYPE svg PUBLIC "-//W3C//DTD SVG 1.1//EN" "http://www.w3.org/Graphics/SVG/1.1/DTD/svg11.dtd" [
	<!ENTITY ns_flows "http://ns.adobe.com/Flows/1.0/">
]>
<svg version="1.1"
	 xmlns="http://www.w3.org/2000/svg" xmlns:xlink="http://www.w3.org/1999/xlink" xmlns:a="http://ns.adobe.com/AdobeSVGViewerExtensions/3.0/"
	 x="0px" y="0px" width="78px" height="66px" viewBox="0 0 78 66" enable-background="new 0 0 78 66" xml:space="preserve">
<defs>
</defs>
<path fill="none" stroke="#FFFFFF" stroke-width="5" stroke-miterlimit="10" d="M17.958,51.563L6.797,50.357
	c-2.653-0.287-4.563-2.752-4.267-5.51L6.619,7c0.298-2.756,2.69-4.76,5.345-4.473L69.661,8.76c2.654,0.285,4.564,2.754,4.267,5.512
	l-4.089,37.846c-0.297,2.758-2.689,4.76-5.344,4.473l-15.048-1.625"/>
<path fill="#FFFFFF" d="M73.724,17.556H15.691c-2.669,0-5.228,2.487-5.228,5.261v38.066c0,2.772,2.559,4.673,5.228,4.673h58.032
	c2.67,0,4.74-1.9,4.74-4.673V22.816C78.464,20.043,76.394,17.556,73.724,17.556z M20.464,54.556V32.994L42.28,54.556H20.464z"/>
</svg>
